<?xml version="1.0" standalone="no"?><!DOCTYPE svg PUBLIC "-//W3C//DTD SVG 1.1//EN" "http://www.w3.org/Graphics/SVG/1.1/DTD/svg11.dtd"><svg t="1741575426972" class="icon" viewBox="0 0 1024 1024" version="1.1" xmlns="http://www.w3.org/2000/svg" p-id="18026" xmlns:xlink="http://www.w3.org/1999/xlink" width="200" height="200"><path d="M1024.171785 176.551724a304.145655 304.145655 0 0 1-14.477242 39.017931 1380.846345 1380.846345 0 0 1-194.206896 277.539311 146.537931 146.537931 0 0 1-60.733793 40.606896c-99.398621 35.310345-198.973793 69.561379-297.666207 105.931035A2904.011034 2904.011034 0 0 0 45.015923 827.497931a131.495724 131.495724 0 0 1-27.188966 12.005517c-14.477241 4.237241-21.892414-3.177931-15.536551-16.772414A335.448276 335.448276 0 0 1 35.48213 764.822069c35.310345-47.13931 72.033103-93.925517 108.755862-139.29931 91.983448-114.758621 186.438621-227.222069 288.308965-333.153104 30.72-32.132414 63.911724-61.793103 95.691035-92.513103a198.267586 198.267586 0 0 1 109.108965-51.729655 1272.937931 1272.937931 0 0 1 270.124138-22.422069c29.025103 2.118621 57.838345 6.550069 86.157242 13.241379A35.310345 35.310345 0 0 1 1024.171785 176.551724z m-117.936552 33.015173C770.113854 247.172414 645.644888 304.551724 545.893164 410.129655c6.532414 1.765517 10.416552 3.001379 14.477242 3.884138 49.787586 9.533793 99.751724 17.655172 149.362758 28.601379a30.013793 30.013793 0 0 0 30.190345-9.180689 897.818483 897.818483 0 0 0 161.721379-214.686897c1.765517-3.177931 3.001379-6.885517 4.590345-10.063448v0.882759zM695.609026 953.37931l-171.255172-12.005517c-46.433103-3.177931-92.866207-6.885517-139.475862-9.886896-41.489655-2.648276-83.155862-4.590345-124.822069-6.885518-8.651034 0-15.889655-4.766897-16.419311-12.711724a22.068966 22.068966 0 0 1 8.12138-17.655172 829.757793 829.757793 0 0 1 72.033103-43.431724 2425.502897 2425.502897 0 0 1 362.813793-148.303449 95.337931 95.337931 0 0 1 57.908966 0 602.518069 602.518069 0 0 1 187.144827 94.278621 41.136552 41.136552 0 0 1-5.12 70.62069 1322.01931 1322.01931 0 0 1-174.256551 75.034482 139.122759 139.122759 0 0 1-56.673104 10.946207zM357.689026 70.62069c25.070345 0 36.89931 14.653793 28.248276 33.015172a4607.046621 4607.046621 0 0 1-73.445517 151.657931 67.972414 67.972414 0 0 1-20.833104 20.48c-58.085517 43.961379-116.347586 88.275862-174.609655 131.354483-9.357241 7.062069-17.655172 14.830345-27.71862 21.715862-2.648276 1.942069-8.121379 3.884138-9.710345 2.648276a14.30069 14.30069 0 0 1-4.590345-10.593104 45.550345 45.550345 0 0 1 3.354483-14.830344 1733.384828 1733.384828 0 0 1 108.049655-248.937932 57.202759 57.202759 0 0 1 27.895172-26.835862c38.488276-17.655172 76.446897-35.310345 114.935173-51.906206A159.955862 159.955862 0 0 1 357.689026 70.62069z" fill="#a855f7" p-id="18027"></path></svg>